<svg width="513" height="70" viewBox="0 0 513 70" fill="none" xmlns="http://www.w3.org/2000/svg">
<path d="M0.101562 69V0.640625H13.8711V69H0.101562ZM22.0742 69V20.9531H22.8555L35.8438 41.8516V69H22.0742ZM22.0742 9.625V0.640625H33.3047L65.5312 52.5938V69H58.9883L22.0742 9.625ZM51.7617 20.3672V0.640625H65.5312V41.2656H64.75L51.7617 20.3672ZM325.688 14.1172V0.640625H367.973V14.1172H353.715V69H339.945V14.1172H325.688ZM373.148 49.957V17.8281C373.148 14.3776 374.613 10.862 377.543 7.28125C381.449 2.59375 386.397 0.217448 392.387 0.152344V13.9219C389.717 13.987 387.96 15.4844 387.113 18.4141C386.983 18.8698 386.918 19.1953 386.918 19.3906V49.957C386.918 52.6263 388.383 54.4492 391.312 55.4258C391.768 55.556 392.094 55.6211 392.289 55.6211V69.4883C388.578 69.4883 384.867 68.1536 381.156 65.4844C375.883 61.5781 373.214 56.4023 373.148 49.957ZM397.66 69.4883V55.6211C398.702 55.6211 399.874 55.0677 401.176 53.9609C402.413 52.8542 403.064 51.5195 403.129 49.957V19.3906C403.129 18.2188 402.576 16.9818 401.469 15.6797C400.427 14.5729 399.158 13.987 397.66 13.9219V0.152344C404.236 0.152344 409.509 2.98438 413.48 8.64844C415.759 11.9036 416.898 14.9635 416.898 17.8281V49.957C416.898 57.1836 413.676 62.7174 407.23 66.5586C403.845 68.5117 400.655 69.4883 397.66 69.4883ZM424.711 69V0.640625H438.48V69H424.711ZM443.754 41.0703V28.8633H445.023C449.19 28.8633 451.859 27.1706 453.031 23.7852C453.292 22.9388 453.422 22.0599 453.422 21.1484C453.422 17.6979 451.794 15.3867 448.539 14.2148C447.497 13.8242 446.326 13.6289 445.023 13.6289H443.754V0.640625H445.902C454.431 0.770833 460.421 3.79818 463.871 9.72266C465.499 12.5221 466.312 15.6797 466.312 19.1953C466.247 25.901 464.034 31.0443 459.672 34.625C462.927 36.7083 465.01 40.4844 465.922 45.9531C465.987 46.6042 466.052 47.2227 466.117 47.8086L467.777 69H455.082L453.617 51.6172C453.096 46.4089 451.599 43.1862 449.125 41.9492C447.953 41.4284 446.521 41.1354 444.828 41.0703H443.754ZM471.098 0.640625H485.453L498.148 44.293V69H483.891V44.3906L471.098 0.640625ZM494.828 13.8242L498.637 0.640625H512.797L502.152 36.6758H501.273L494.828 13.8242Z" fill="black"/>
<path d="M73.7344 68.9023V0.640625H109.281V14.3125H87.5039V28.1797H100.102V41.9492H87.5039V68.9023H73.7344ZM115.922 69V0.640625H129.691V69H115.922ZM134.965 41.0703V28.8633H136.234C140.401 28.8633 143.07 27.1706 144.242 23.7852C144.503 22.9388 144.633 22.0599 144.633 21.1484C144.633 17.6979 143.005 15.3867 139.75 14.2148C138.708 13.8242 137.536 13.6289 136.234 13.6289H134.965V0.640625H137.113C145.642 0.770833 151.632 3.79818 155.082 9.72266C156.71 12.5221 157.523 15.6797 157.523 19.1953C157.458 25.901 155.245 31.0443 150.883 34.625C154.138 36.7083 156.221 40.4844 157.133 45.9531C157.198 46.6042 157.263 47.2227 157.328 47.8086L158.988 69H146.293L144.828 51.6172C144.307 46.4089 142.81 43.1862 140.336 41.9492C139.164 41.4284 137.732 41.1354 136.039 41.0703H134.965ZM165.238 69V0.640625H179.008V69H165.238ZM187.211 69V0.640625H222.758V14.3125H200.98V28.1797H213.578V41.9492H200.98V55.2305H222.758V69H187.211ZM230.57 69V20.9531H231.352L244.34 41.8516V69H230.57ZM230.57 9.625V0.640625H241.801L274.027 52.5938V69H267.484L230.57 9.625ZM260.258 20.3672V0.640625H274.027V41.2656H273.246L260.258 20.3672ZM282.23 69V0.640625H296V69H282.23ZM301.273 69V55.2305C302.706 55.2305 304.04 54.6445 305.277 53.4727C306.189 52.431 306.677 51.194 306.742 49.7617V19.8789C306.742 18.5768 306.189 17.3073 305.082 16.0703C304.04 15.0286 302.771 14.4753 301.273 14.4102V0.640625C308.5 0.640625 313.969 3.86328 317.68 10.3086C319.568 13.6289 320.512 16.819 320.512 19.8789V49.7617C320.512 57.1836 317.224 62.7174 310.648 66.3633C307.393 68.1211 304.268 69 301.273 69Z" fill="#47CA18"/>
</svg>
