<svg width="360" height="360" viewBox="0 0 360 360" fill="none" xmlns="http://www.w3.org/2000/svg">
<path d="M32 -9.71364e-07C54.0914 -4.34894e-07 72 17.9086 72 40L72 360L40 360C17.9086 360 3.60166e-06 342.091 5.33982e-06 320L3.05176e-05 -1.74845e-06L32 -9.71364e-07Z" fill="black"/>
<path d="M144 39H216V350C216 355.523 211.523 360 206 360H184C161.909 360 144 342.091 144 320V39Z" fill="#47CA18"/>
<path d="M144 0H320C342.091 0 360 17.9086 360 40V72H144V0Z" fill="#47CA18"/>
<path d="M182 144H288V216H182V144Z" fill="#47CA18"/>
</svg>
